<?xml version="1.0" standalone="no"?>
<!DOCTYPE svg PUBLIC "-//W3C//DTD SVG 20010904//EN"
 "http://www.w3.org/TR/2001/REC-SVG-20010904/DTD/svg10.dtd">
<svg version="1.0" xmlns="http://www.w3.org/2000/svg"
 width="114.000000pt" height="114.000000pt" viewBox="0 0 114.000000 114.000000"
 preserveAspectRatio="xMidYMid meet">

<g transform="translate(0.000000,114.000000) scale(0.100000,-0.100000)"
fill="#000000" stroke="none">
<path d="M245 906 c-29 -29 -23 -6 -81 -326 -7 -41 -13 -109 -13 -151 -1 -94
-17 -115 -80 -105 -22 3 -42 2 -45 -3 -7 -11 17 -21 50 -21 22 0 24 -3 18 -27
-9 -37 -13 -43 -28 -43 -8 0 -19 -7 -26 -15 -10 -12 -10 -15 3 -15 9 0 28 5
42 12 21 9 31 9 53 -4 64 -37 125 -41 456 -35 252 5 322 10 335 21 9 7 32 19
53 26 32 12 40 11 63 -4 37 -24 47 -10 13 18 -18 14 -28 31 -28 48 0 23 5 26
45 33 56 8 49 27 -9 25 -22 -1 -46 -1 -53 -1 -14 1 -20 64 -32 306 -10 211
-27 278 -73 283 -30 4 -102 -56 -138 -113 l-20 -33 -113 -6 c-61 -4 -137 -9
-168 -12 l-57 -6 -47 74 c-45 71 -70 98 -87 98 -5 0 -20 -11 -33 -24z m683
-52 c9 -26 17 -112 23 -259 5 -121 11 -230 14 -242 4 -17 0 -22 -17 -25 -38
-5 -32 -26 8 -30 21 -2 39 -9 42 -17 4 -11 -2 -13 -27 -8 -18 4 -31 2 -31 -3
0 -6 6 -10 13 -10 6 -1 2 -9 -9 -18 -18 -15 -58 -20 -247 -32 -234 -14 -394
-10 -484 11 -49 12 -72 29 -38 29 18 0 20 16 3 24 -10 5 -10 7 0 12 10 5 10 9
1 20 -8 9 -8 18 -2 27 6 6 13 82 16 167 5 116 11 171 27 218 11 35 20 75 20
88 0 27 26 84 38 84 4 0 30 -36 59 -79 l52 -79 88 4 c304 15 288 12 308 47 22
40 105 119 118 114 6 -2 17 -21 25 -43z m-768 -573 c0 -5 -7 -11 -15 -15 -15
-5 -20 5 -8 17 9 10 23 9 23 -2z"/>
<path d="M848 823 c-23 -27 -40 -62 -33 -72 8 -14 73 -33 86 -25 21 13 -6 114
-31 114 -4 0 -14 -8 -22 -17z m21 -62 c-15 -5 -22 6 -14 19 6 9 10 9 16 -1 5
-8 4 -15 -2 -18z"/>
<path d="M260 801 c-5 -11 -10 -36 -10 -56 0 -36 1 -36 37 -33 46 4 54 26 28
75 -20 37 -39 42 -55 14z m40 -47 c0 -8 -4 -14 -10 -14 -5 0 -10 9 -10 21 0
11 5 17 10 14 6 -3 10 -13 10 -21z"/>
<path d="M441 651 c-11 -27 -21 -59 -21 -70 0 -30 28 -26 36 4 3 14 8 25 10
25 2 0 18 -15 34 -32 l30 -33 30 35 c17 19 30 38 30 42 0 4 5 8 10 8 6 0 10
-6 10 -13 0 -24 26 -51 43 -44 15 6 15 10 -2 48 -10 22 -26 48 -35 57 -15 15
-17 15 -32 -6 -9 -13 -27 -35 -39 -50 l-24 -27 -23 53 c-12 28 -25 52 -29 52
-3 0 -16 -22 -28 -49z"/>
<path d="M731 543 l-73 -4 4 -51 c8 -76 37 -98 129 -98 56 0 73 4 89 20 22 22
40 61 40 86 0 28 -38 54 -77 52 -21 -1 -71 -4 -112 -5z m29 -78 c0 -50 1 -49
-34 -34 -24 11 -50 61 -39 73 4 3 21 6 40 6 33 0 33 -1 33 -45z m130 35 c0
-18 -30 -70 -39 -70 -5 0 -16 -3 -25 -6 -13 -5 -16 2 -16 40 l0 46 40 0 c22 0
40 -5 40 -10z"/>
<path d="M265 532 c-16 -2 -36 -11 -42 -20 -17 -21 -16 -72 1 -94 16 -21 77
-48 108 -48 53 0 103 72 91 130 -5 27 -9 30 -47 31 -22 0 -50 1 -61 2 -11 1
-33 1 -50 -1z m23 -72 c-1 -22 -4 -40 -8 -40 -12 0 -28 24 -35 53 -6 24 -5 27
19 27 24 0 26 -3 24 -40z m108 27 c6 -6 -39 -70 -53 -75 -9 -2 -13 10 -13 43
0 46 0 46 31 41 17 -2 33 -6 35 -9z"/>
<path d="M520 358 c0 -37 -6 -61 -20 -78 -11 -14 -20 -31 -20 -37 0 -21 38
-15 54 9 15 20 16 21 34 5 10 -9 24 -17 30 -17 21 0 13 29 -13 46 -18 12 -25
25 -25 49 0 18 5 35 12 37 21 7 0 38 -27 38 -24 0 -25 -3 -25 -52z"/>
</g>
</svg>
