<?xml version="1.0" standalone="no"?>
<!DOCTYPE svg PUBLIC "-//W3C//DTD SVG 20010904//EN"
 "http://www.w3.org/TR/2001/REC-SVG-20010904/DTD/svg10.dtd">
<svg version="1.0" xmlns="http://www.w3.org/2000/svg"
 width="114.000000pt" height="114.000000pt" viewBox="0 0 114.000000 114.000000"
 preserveAspectRatio="xMidYMid meet">
<metadata>
Created by potrace 1.13, written by Peter Selinger 2001-2015
</metadata>
<g transform="translate(0.000000,114.000000) scale(0.100000,-0.100000)"
fill="#000000" stroke="none">
<path d="M885 930 c-20 -7 -96 -85 -125 -127 -14 -20 -28 -22 -180 -32 -188
-12 -164 -21 -230 84 -44 70 -63 82 -96 60 -29 -19 -41 -46 -50 -112 -3 -27
-15 -88 -25 -138 -11 -49 -22 -139 -26 -200 -7 -133 -16 -150 -80 -141 -23 3
-45 2 -48 -3 -6 -11 18 -21 51 -21 22 0 24 -3 18 -27 -9 -37 -13 -43 -28 -43
-8 0 -19 -7 -26 -15 -10 -12 -10 -15 3 -15 9 0 28 5 42 12 21 9 31 9 53 -4 64
-37 125 -41 456 -35 252 5 322 10 335 21 9 7 32 19 53 26 32 12 40 11 63 -4
37 -24 47 -10 13 18 -18 14 -28 31 -28 48 0 23 5 26 45 33 56 8 49 27 -9 25
-22 -1 -46 -1 -52 -1 -15 1 -22 66 -29 261 -7 177 -10 206 -31 273 -17 51 -38
69 -69 57z m43 -76 c9 -26 17 -113 23 -264 5 -124 11 -231 14 -238 3 -7 -6
-17 -20 -22 -36 -14 -31 -28 12 -32 20 -2 39 -9 41 -17 4 -11 -2 -13 -27 -8
-18 4 -31 2 -31 -3 0 -6 6 -10 13 -10 6 -1 2 -9 -10 -19 -17 -15 -50 -20 -170
-27 -345 -21 -648 -4 -597 33 16 12 17 15 4 24 -12 8 -12 12 -2 16 10 4 10 8
1 19 -8 9 -8 18 -2 27 6 6 13 80 16 162 4 113 10 166 26 215 11 36 21 78 21
93 0 29 25 87 38 87 4 0 30 -35 57 -78 l50 -77 95 3 c52 1 138 5 191 8 93 6
96 7 114 36 23 39 106 119 118 115 6 -2 17 -21 25 -43z"/>
<path d="M441 651 c-11 -27 -21 -59 -21 -70 0 -30 28 -26 36 4 3 14 8 25 10
25 2 0 18 -15 34 -32 l30 -33 30 35 c17 19 30 38 30 42 0 4 5 8 10 8 6 0 10
-6 10 -13 0 -24 26 -51 43 -44 15 6 15 10 -2 48 -10 22 -26 48 -35 57 -15 15
-17 15 -32 -6 -9 -13 -27 -35 -39 -50 l-24 -27 -23 53 c-12 28 -25 52 -29 52
-3 0 -16 -22 -28 -49z"/>
<path d="M731 543 l-73 -4 4 -51 c8 -76 37 -98 129 -98 56 0 73 4 89 20 22 22
40 61 40 86 0 28 -38 54 -77 52 -21 -1 -71 -4 -112 -5z"/>
<path d="M265 532 c-43 -5 -55 -19 -55 -62 0 -46 37 -87 88 -96 71 -14 127 34
126 107 -1 22 -3 41 -5 43 -6 6 -121 12 -154 8z"/>
</g>
</svg>
